<svg width="300" height="250" viewBox="0 0 300 250" fill="none" xmlns="http://www.w3.org/2000/svg">
<path d="M36.1738 114V96.5455H38.2874V104.318H47.5942V96.5455H49.7079V114H47.5942V106.193H38.2874V114H36.1738ZM57.3621 118.909C57.0212 118.909 56.7173 118.881 56.4502 118.824C56.1832 118.773 55.9985 118.722 55.8962 118.67L56.4076 116.898C56.8962 117.023 57.3281 117.068 57.7031 117.034C58.0781 117 58.4104 116.832 58.7002 116.531C58.9957 116.236 59.2656 115.756 59.5099 115.091L59.8849 114.068L55.044 100.909H57.2258L60.8394 111.341H60.9758L64.5894 100.909H66.7712L61.2144 115.909C60.9644 116.585 60.6548 117.145 60.2854 117.588C59.9161 118.037 59.4871 118.369 58.9985 118.585C58.5156 118.801 57.9701 118.909 57.3621 118.909ZM80.0761 108.648V100.909H82.0874V114H80.0761V111.784H79.9397C79.6329 112.449 79.1556 113.014 78.5079 113.48C77.8602 113.94 77.042 114.17 76.0533 114.17C75.2352 114.17 74.5079 113.991 73.8715 113.634C73.2352 113.27 72.7352 112.724 72.3715 111.997C72.0079 111.264 71.8261 110.341 71.8261 109.227V100.909H73.8374V109.091C73.8374 110.045 74.1045 110.807 74.6386 111.375C75.1783 111.943 75.8658 112.227 76.7011 112.227C77.2011 112.227 77.7096 112.099 78.2266 111.844C78.7494 111.588 79.1869 111.196 79.5391 110.668C79.8971 110.139 80.0761 109.466 80.0761 108.648ZM90.1827 106.125V114H88.1714V100.909H90.1146V102.955H90.285C90.5918 102.29 91.0577 101.756 91.6827 101.352C92.3077 100.943 93.1146 100.739 94.1032 100.739C94.9896 100.739 95.7651 100.92 96.4299 101.284C97.0947 101.642 97.6117 102.188 97.981 102.92C98.3504 103.648 98.535 104.568 98.535 105.682V114H96.5237V105.818C96.5237 104.79 96.2566 103.989 95.7225 103.415C95.1884 102.835 94.4555 102.545 93.5237 102.545C92.8816 102.545 92.3077 102.685 91.8021 102.963C91.3021 103.241 90.9072 103.648 90.6174 104.182C90.3276 104.716 90.1827 105.364 90.1827 106.125ZM107.576 114L103.588 100.909H105.701L108.531 110.932H108.667L111.463 100.909H113.61L116.372 110.898H116.508L119.338 100.909H121.451L117.463 114H115.485L112.622 103.943H112.417L109.554 114H107.576ZM131.383 114.273C130.201 114.273 129.165 113.991 128.273 113.429C127.386 112.866 126.693 112.08 126.193 111.068C125.699 110.057 125.451 108.875 125.451 107.523C125.451 106.159 125.699 104.969 126.193 103.952C126.693 102.935 127.386 102.145 128.273 101.582C129.165 101.02 130.201 100.739 131.383 100.739C132.565 100.739 133.599 101.02 134.486 101.582C135.378 102.145 136.071 102.935 136.565 103.952C137.065 104.969 137.315 106.159 137.315 107.523C137.315 108.875 137.065 110.057 136.565 111.068C136.071 112.08 135.378 112.866 134.486 113.429C133.599 113.991 132.565 114.273 131.383 114.273ZM131.383 112.466C132.281 112.466 133.02 112.236 133.599 111.776C134.179 111.315 134.608 110.71 134.886 109.96C135.165 109.21 135.304 108.398 135.304 107.523C135.304 106.648 135.165 105.832 134.886 105.077C134.608 104.321 134.179 103.71 133.599 103.244C133.02 102.778 132.281 102.545 131.383 102.545C130.486 102.545 129.747 102.778 129.167 103.244C128.588 103.71 128.159 104.321 127.88 105.077C127.602 105.832 127.463 106.648 127.463 107.523C127.463 108.398 127.602 109.21 127.88 109.96C128.159 110.71 128.588 111.315 129.167 111.776C129.747 112.236 130.486 112.466 131.383 112.466ZM148.104 114.273C146.922 114.273 145.885 113.991 144.993 113.429C144.106 112.866 143.413 112.08 142.913 111.068C142.419 110.057 142.172 108.875 142.172 107.523C142.172 106.159 142.419 104.969 142.913 103.952C143.413 102.935 144.106 102.145 144.993 101.582C145.885 101.02 146.922 100.739 148.104 100.739C149.285 100.739 150.32 101.02 151.206 101.582C152.098 102.145 152.791 102.935 153.285 103.952C153.785 104.969 154.035 106.159 154.035 107.523C154.035 108.875 153.785 110.057 153.285 111.068C152.791 112.08 152.098 112.866 151.206 113.429C150.32 113.991 149.285 114.273 148.104 114.273ZM148.104 112.466C149.001 112.466 149.74 112.236 150.32 111.776C150.899 111.315 151.328 110.71 151.606 109.96C151.885 109.21 152.024 108.398 152.024 107.523C152.024 106.648 151.885 105.832 151.606 105.077C151.328 104.321 150.899 103.71 150.32 103.244C149.74 102.778 149.001 102.545 148.104 102.545C147.206 102.545 146.467 102.778 145.888 103.244C145.308 103.71 144.879 104.321 144.601 105.077C144.322 105.832 144.183 106.648 144.183 107.523C144.183 108.398 144.322 109.21 144.601 109.96C144.879 110.71 145.308 111.315 145.888 111.776C146.467 112.236 147.206 112.466 148.104 112.466ZM159.506 114V100.909H161.449V102.955H161.619C161.892 102.256 162.332 101.713 162.94 101.327C163.548 100.935 164.278 100.739 165.131 100.739C165.994 100.739 166.713 100.935 167.287 101.327C167.867 101.713 168.318 102.256 168.642 102.955H168.778C169.114 102.278 169.617 101.741 170.287 101.344C170.957 100.94 171.761 100.739 172.699 100.739C173.869 100.739 174.827 101.105 175.571 101.838C176.315 102.565 176.688 103.699 176.688 105.239V114H174.676V105.239C174.676 104.273 174.412 103.582 173.884 103.168C173.355 102.753 172.733 102.545 172.017 102.545C171.097 102.545 170.384 102.824 169.878 103.381C169.372 103.932 169.119 104.631 169.119 105.477V114H167.074V105.034C167.074 104.29 166.832 103.69 166.35 103.236C165.867 102.776 165.244 102.545 164.483 102.545C163.96 102.545 163.472 102.685 163.017 102.963C162.568 103.241 162.205 103.628 161.926 104.122C161.653 104.611 161.517 105.176 161.517 105.818V114H159.506ZM188.254 114.273C186.992 114.273 185.904 113.994 184.99 113.438C184.08 112.875 183.379 112.091 182.884 111.085C182.396 110.074 182.151 108.898 182.151 107.557C182.151 106.216 182.396 105.034 182.884 104.011C183.379 102.983 184.066 102.182 184.947 101.608C185.833 101.028 186.867 100.739 188.049 100.739C188.731 100.739 189.404 100.852 190.069 101.08C190.734 101.307 191.339 101.676 191.884 102.188C192.43 102.693 192.865 103.364 193.188 104.199C193.512 105.034 193.674 106.062 193.674 107.284V108.136H183.583V106.398H191.629C191.629 105.659 191.481 105 191.186 104.42C190.896 103.841 190.481 103.384 189.941 103.048C189.407 102.713 188.776 102.545 188.049 102.545C187.248 102.545 186.555 102.744 185.97 103.142C185.39 103.534 184.944 104.045 184.632 104.676C184.319 105.307 184.163 105.983 184.163 106.705V107.864C184.163 108.852 184.333 109.69 184.674 110.378C185.021 111.06 185.501 111.58 186.115 111.938C186.728 112.29 187.441 112.466 188.254 112.466C188.782 112.466 189.259 112.392 189.686 112.244C190.117 112.091 190.49 111.864 190.802 111.562C191.115 111.256 191.356 110.875 191.526 110.42L193.47 110.966C193.265 111.625 192.921 112.205 192.438 112.705C191.955 113.199 191.359 113.585 190.649 113.864C189.938 114.136 189.14 114.273 188.254 114.273ZM199.134 114V100.909H201.077V102.955H201.248C201.52 102.256 201.961 101.713 202.569 101.327C203.176 100.935 203.907 100.739 204.759 100.739C205.623 100.739 206.341 100.935 206.915 101.327C207.495 101.713 207.946 102.256 208.27 102.955H208.407C208.742 102.278 209.245 101.741 209.915 101.344C210.586 100.94 211.39 100.739 212.327 100.739C213.498 100.739 214.455 101.105 215.199 101.838C215.944 102.565 216.316 103.699 216.316 105.239V114H214.304V105.239C214.304 104.273 214.04 103.582 213.512 103.168C212.983 102.753 212.361 102.545 211.645 102.545C210.725 102.545 210.012 102.824 209.506 103.381C209 103.932 208.748 104.631 208.748 105.477V114H206.702V105.034C206.702 104.29 206.461 103.69 205.978 103.236C205.495 102.776 204.873 102.545 204.111 102.545C203.588 102.545 203.1 102.685 202.645 102.963C202.196 103.241 201.833 103.628 201.554 104.122C201.282 104.611 201.145 105.176 201.145 105.818V114H199.134ZM227.711 114.273C226.53 114.273 225.493 113.991 224.601 113.429C223.714 112.866 223.021 112.08 222.521 111.068C222.027 110.057 221.78 108.875 221.78 107.523C221.78 106.159 222.027 104.969 222.521 103.952C223.021 102.935 223.714 102.145 224.601 101.582C225.493 101.02 226.53 100.739 227.711 100.739C228.893 100.739 229.927 101.02 230.814 101.582C231.706 102.145 232.399 102.935 232.893 103.952C233.393 104.969 233.643 106.159 233.643 107.523C233.643 108.875 233.393 110.057 232.893 111.068C232.399 112.08 231.706 112.866 230.814 113.429C229.927 113.991 228.893 114.273 227.711 114.273ZM227.711 112.466C228.609 112.466 229.348 112.236 229.927 111.776C230.507 111.315 230.936 110.71 231.214 109.96C231.493 109.21 231.632 108.398 231.632 107.523C231.632 106.648 231.493 105.832 231.214 105.077C230.936 104.321 230.507 103.71 229.927 103.244C229.348 102.778 228.609 102.545 227.711 102.545C226.814 102.545 226.075 102.778 225.496 103.244C224.916 103.71 224.487 104.321 224.209 105.077C223.93 105.832 223.791 106.648 223.791 107.523C223.791 108.398 223.93 109.21 224.209 109.96C224.487 110.71 224.916 111.315 225.496 111.776C226.075 112.236 226.814 112.466 227.711 112.466ZM240.886 96.5455V98.0795C240.886 98.5455 240.801 99.0426 240.631 99.571C240.466 100.094 240.222 100.602 239.898 101.097C239.579 101.585 239.193 102.011 238.739 102.375L237.648 101.489C238.006 100.977 238.315 100.446 238.577 99.8949C238.844 99.3381 238.977 98.7443 238.977 98.1136V96.5455H240.886ZM253.364 103.841L251.558 104.352C251.444 104.051 251.276 103.759 251.055 103.474C250.839 103.185 250.543 102.946 250.168 102.759C249.793 102.571 249.313 102.477 248.728 102.477C247.927 102.477 247.259 102.662 246.725 103.031C246.197 103.395 245.933 103.858 245.933 104.42C245.933 104.92 246.114 105.315 246.478 105.605C246.842 105.895 247.41 106.136 248.183 106.33L250.126 106.807C251.296 107.091 252.168 107.526 252.742 108.111C253.316 108.69 253.603 109.437 253.603 110.352C253.603 111.102 253.387 111.773 252.955 112.364C252.529 112.955 251.933 113.42 251.166 113.761C250.399 114.102 249.506 114.273 248.489 114.273C247.154 114.273 246.049 113.983 245.174 113.403C244.299 112.824 243.745 111.977 243.512 110.864L245.421 110.386C245.603 111.091 245.947 111.619 246.452 111.972C246.964 112.324 247.631 112.5 248.455 112.5C249.393 112.5 250.137 112.301 250.688 111.903C251.245 111.5 251.524 111.017 251.524 110.455C251.524 110 251.364 109.619 251.046 109.312C250.728 109 250.239 108.767 249.58 108.614L247.399 108.102C246.2 107.818 245.319 107.378 244.756 106.781C244.2 106.179 243.921 105.426 243.921 104.523C243.921 103.784 244.129 103.131 244.543 102.562C244.964 101.994 245.535 101.548 246.256 101.224C246.984 100.901 247.808 100.739 248.728 100.739C250.024 100.739 251.041 101.023 251.779 101.591C252.524 102.159 253.052 102.909 253.364 103.841ZM111.09 153H105.703V135.545H111.328C113.022 135.545 114.471 135.895 115.675 136.594C116.88 137.287 117.803 138.284 118.445 139.585C119.087 140.881 119.408 142.432 119.408 144.239C119.408 146.057 119.084 147.622 118.436 148.935C117.789 150.241 116.846 151.247 115.607 151.952C114.368 152.651 112.863 153 111.09 153ZM107.817 151.125H110.953C112.397 151.125 113.593 150.847 114.542 150.29C115.49 149.733 116.198 148.94 116.664 147.912C117.13 146.884 117.363 145.659 117.363 144.239C117.363 142.83 117.132 141.616 116.672 140.599C116.212 139.577 115.525 138.793 114.61 138.247C113.695 137.696 112.556 137.42 111.192 137.42H107.817V151.125ZM130.569 153.273C129.308 153.273 128.22 152.994 127.305 152.438C126.396 151.875 125.694 151.091 125.2 150.085C124.711 149.074 124.467 147.898 124.467 146.557C124.467 145.216 124.711 144.034 125.2 143.011C125.694 141.983 126.382 141.182 127.263 140.608C128.149 140.028 129.183 139.739 130.365 139.739C131.047 139.739 131.72 139.852 132.385 140.08C133.05 140.307 133.655 140.676 134.2 141.188C134.746 141.693 135.18 142.364 135.504 143.199C135.828 144.034 135.99 145.062 135.99 146.284V147.136H125.899V145.398H133.944C133.944 144.659 133.797 144 133.501 143.42C133.211 142.841 132.797 142.384 132.257 142.048C131.723 141.713 131.092 141.545 130.365 141.545C129.564 141.545 128.871 141.744 128.285 142.142C127.706 142.534 127.26 143.045 126.947 143.676C126.635 144.307 126.478 144.983 126.478 145.705V146.864C126.478 147.852 126.649 148.69 126.99 149.378C127.336 150.06 127.817 150.58 128.43 150.938C129.044 151.29 129.757 151.466 130.569 151.466C131.098 151.466 131.575 151.392 132.001 151.244C132.433 151.091 132.805 150.864 133.118 150.562C133.43 150.256 133.672 149.875 133.842 149.42L135.785 149.966C135.581 150.625 135.237 151.205 134.754 151.705C134.271 152.199 133.675 152.585 132.964 152.864C132.254 153.136 131.456 153.273 130.569 153.273ZM151.756 139.909L146.915 153H144.869L140.028 139.909H142.21L145.824 150.341H145.96L149.574 139.909H151.756ZM158.822 135.545V153H156.81V135.545H158.822ZM170.224 153.273C169.042 153.273 168.005 152.991 167.113 152.429C166.227 151.866 165.534 151.08 165.034 150.068C164.539 149.057 164.292 147.875 164.292 146.523C164.292 145.159 164.539 143.969 165.034 142.952C165.534 141.935 166.227 141.145 167.113 140.582C168.005 140.02 169.042 139.739 170.224 139.739C171.406 139.739 172.44 140.02 173.326 140.582C174.218 141.145 174.911 141.935 175.406 142.952C175.906 143.969 176.156 145.159 176.156 146.523C176.156 147.875 175.906 149.057 175.406 150.068C174.911 151.08 174.218 151.866 173.326 152.429C172.44 152.991 171.406 153.273 170.224 153.273ZM170.224 151.466C171.122 151.466 171.86 151.236 172.44 150.776C173.019 150.315 173.448 149.71 173.727 148.96C174.005 148.21 174.144 147.398 174.144 146.523C174.144 145.648 174.005 144.832 173.727 144.077C173.448 143.321 173.019 142.71 172.44 142.244C171.86 141.778 171.122 141.545 170.224 141.545C169.326 141.545 168.588 141.778 168.008 142.244C167.428 142.71 167 143.321 166.721 144.077C166.443 144.832 166.303 145.648 166.303 146.523C166.303 147.398 166.443 148.21 166.721 148.96C167 149.71 167.428 150.315 168.008 150.776C168.588 151.236 169.326 151.466 170.224 151.466ZM186.91 158.182C185.939 158.182 185.103 158.057 184.404 157.807C183.706 157.562 183.123 157.239 182.657 156.835C182.197 156.438 181.831 156.011 181.558 155.557L183.16 154.432C183.342 154.67 183.572 154.943 183.85 155.25C184.129 155.562 184.51 155.832 184.993 156.06C185.481 156.293 186.12 156.409 186.91 156.409C187.967 156.409 188.839 156.153 189.527 155.642C190.214 155.131 190.558 154.33 190.558 153.239V150.58H190.387C190.24 150.818 190.029 151.114 189.757 151.466C189.49 151.812 189.103 152.122 188.598 152.395C188.098 152.662 187.422 152.795 186.569 152.795C185.512 152.795 184.564 152.545 183.723 152.045C182.887 151.545 182.225 150.818 181.737 149.864C181.254 148.909 181.012 147.75 181.012 146.386C181.012 145.045 181.248 143.878 181.72 142.884C182.191 141.884 182.848 141.111 183.689 140.565C184.529 140.014 185.501 139.739 186.603 139.739C187.456 139.739 188.132 139.881 188.632 140.165C189.137 140.443 189.524 140.761 189.791 141.119C190.064 141.472 190.274 141.761 190.422 141.989H190.626V139.909H192.569V153.375C192.569 154.5 192.314 155.415 191.802 156.119C191.297 156.83 190.615 157.349 189.757 157.679C188.904 158.014 187.956 158.182 186.91 158.182ZM186.842 150.989C187.649 150.989 188.331 150.804 188.887 150.435C189.444 150.065 189.868 149.534 190.157 148.841C190.447 148.148 190.592 147.318 190.592 146.352C190.592 145.409 190.45 144.577 190.166 143.855C189.882 143.134 189.461 142.568 188.904 142.159C188.348 141.75 187.66 141.545 186.842 141.545C185.99 141.545 185.279 141.761 184.711 142.193C184.149 142.625 183.725 143.205 183.441 143.932C183.163 144.659 183.024 145.466 183.024 146.352C183.024 147.261 183.166 148.065 183.45 148.764C183.74 149.457 184.166 150.003 184.728 150.401C185.297 150.793 186.001 150.989 186.842 150.989Z" fill="#7c7cff"/>
</svg>
